<svg width="139" height="43" viewBox="0 0 139 43" fill="none" xmlns="http://www.w3.org/2000/svg">
<path d="M135.426 13.1884H130.779C130.692 12.9587 130.594 12.7343 130.491 12.515L133.874 9.64388C134.232 9.34837 134.525 8.98761 134.737 8.58256C134.948 8.1775 135.074 7.73622 135.106 7.28434C135.138 6.83246 135.076 6.37899 134.923 5.95025C134.771 5.52151 134.531 5.12605 134.218 4.78684C133.905 4.44764 133.524 4.17145 133.099 3.9743C132.673 3.77715 132.211 3.66298 131.739 3.63841C131.267 3.61385 130.795 3.67939 130.349 3.83121C129.904 3.98303 129.495 4.2181 129.145 4.5228L125.582 7.54532C125.528 7.5923 125.484 7.64975 125.43 7.70196C125.206 7.60277 124.978 7.51402 124.743 7.43049V3.29083C124.707 2.40642 124.315 1.56972 123.65 0.956209C122.984 0.342695 122.096 0 121.172 0C120.249 0 119.361 0.342695 118.695 0.956209C118.029 1.56972 117.637 2.40642 117.601 3.29083V7.43049C117.271 7.54658 116.948 7.679 116.632 7.82724C116.531 7.70838 116.422 7.59671 116.305 7.49313L112.715 4.5228C111.992 3.97101 111.075 3.70882 110.155 3.79125C109.235 3.87369 108.384 4.29435 107.781 4.96495C107.177 5.63555 106.869 6.50397 106.919 7.38802C106.97 8.27207 107.375 9.10301 108.051 9.70652L111.658 12.6873C111.686 12.7112 111.717 12.7322 111.75 12.7499C111.685 12.8961 111.631 13.0475 111.571 13.1989H107.093C106.151 13.203 105.249 13.5636 104.584 14.2022C103.919 14.8407 103.544 15.7054 103.541 16.6077V16.6077C103.541 17.515 103.917 18.3853 104.586 19.0273C105.255 19.6694 106.162 20.0308 107.109 20.0322H111.543L111.652 20.3141H111.62L108.051 23.3366C107.377 23.9471 106.978 24.7849 106.936 25.6727C106.895 26.5606 107.216 27.4291 107.83 28.0946C108.445 28.7602 109.305 29.1707 110.23 29.2394C111.155 29.3081 112.071 29.0297 112.786 28.4629L116.348 25.4404L116.425 25.3621C116.814 25.5636 117.218 25.738 117.634 25.8841V29.9872C117.67 30.8717 118.062 31.7083 118.728 32.3218C119.394 32.9354 120.281 33.278 121.205 33.278C122.129 33.278 123.016 32.9354 123.682 32.3218C124.348 31.7083 124.74 30.8717 124.776 29.9872V25.9259C125.021 25.8371 125.266 25.7432 125.506 25.6335L129.003 28.5203C129.724 29.1108 130.659 29.403 131.604 29.3325C132.549 29.262 133.426 28.8347 134.043 28.1445C134.659 27.4543 134.964 26.5578 134.89 25.6523C134.817 24.7467 134.371 23.9062 133.65 23.3157L130.545 20.7474C130.654 20.5125 130.752 20.2723 130.845 20.0322H135.426C136.374 20.0322 137.283 19.6714 137.953 19.0292C138.623 18.387 139 17.516 139 16.6077V16.6077C138.999 15.7004 138.621 14.8307 137.951 14.1896C137.281 13.5485 136.373 13.1884 135.426 13.1884V13.1884Z" fill="#C399F1"/>
<path d="M121.27 22.1853C124.15 22.1853 126.485 19.9279 126.485 17.1432C126.485 14.3585 124.15 12.1011 121.27 12.1011C118.39 12.1011 116.056 14.3585 116.056 17.1432C116.056 19.9279 118.39 22.1853 121.27 22.1853Z" fill="white"/>
<path d="M6.44493 36.324C5.53293 36.324 4.83693 36.072 4.35693 35.568C3.87693 35.064 3.63693 34.356 3.63693 33.444V13.176C3.63693 12.264 3.87693 11.556 4.35693 11.052C4.83693 10.548 5.53293 10.296 6.44493 10.296C7.33293 10.296 8.01693 10.548 8.49693 11.052C8.97693 11.556 9.21693 12.264 9.21693 13.176V33.444C9.21693 34.356 8.97693 35.064 8.49693 35.568C8.04093 36.072 7.35693 36.324 6.44493 36.324ZM16.6644 36.324C15.7524 36.324 15.0564 36.084 14.5764 35.604C14.0964 35.124 13.8564 34.44 13.8564 33.552V20.772C13.8564 19.884 14.0844 19.212 14.5404 18.756C15.0204 18.276 15.6804 18.036 16.5204 18.036C17.3844 18.036 18.0444 18.276 18.5004 18.756C18.9564 19.212 19.1844 19.884 19.1844 20.772V22.644H18.8244C19.1124 21.204 19.7484 20.088 20.7324 19.296C21.7164 18.504 22.9884 18.06 24.5484 17.964C25.1484 17.916 25.6044 18.072 25.9164 18.432C26.2524 18.768 26.4324 19.332 26.4564 20.124C26.5044 20.868 26.3484 21.456 25.9884 21.888C25.6524 22.32 25.0764 22.584 24.2604 22.68L23.4324 22.752C22.0644 22.872 21.0444 23.268 20.3724 23.94C19.7244 24.612 19.4004 25.584 19.4004 26.856V33.552C19.4004 34.44 19.1604 35.124 18.6804 35.604C18.2244 36.084 17.5524 36.324 16.6644 36.324ZM31.5004 36.324C30.6124 36.324 29.9284 36.084 29.4484 35.604C28.9924 35.124 28.7644 34.44 28.7644 33.552V20.772C28.7644 19.884 28.9924 19.212 29.4484 18.756C29.9284 18.276 30.5884 18.036 31.4284 18.036C32.2924 18.036 32.9524 18.276 33.4084 18.756C33.8644 19.212 34.0924 19.884 34.0924 20.772V23.076L33.6964 21.636C34.1764 20.532 34.9204 19.644 35.9284 18.972C36.9364 18.3 38.1244 17.964 39.4924 17.964C40.8604 17.964 42.0004 18.288 42.9124 18.936C43.8244 19.584 44.4724 20.58 44.8564 21.924H44.3524C44.8804 20.7 45.6844 19.74 46.7644 19.044C47.8684 18.324 49.1284 17.964 50.5444 17.964C51.9124 17.964 53.0284 18.24 53.8924 18.792C54.7804 19.32 55.4404 20.136 55.8724 21.24C56.3044 22.32 56.5204 23.7 56.5204 25.38V33.552C56.5204 34.44 56.2804 35.124 55.8004 35.604C55.3444 36.084 54.6844 36.324 53.8204 36.324C52.9324 36.324 52.2484 36.084 51.7684 35.604C51.3124 35.124 51.0844 34.44 51.0844 33.552V25.56C51.0844 24.384 50.8924 23.532 50.5084 23.004C50.1484 22.452 49.5244 22.176 48.6364 22.176C47.6044 22.176 46.8004 22.536 46.2244 23.256C45.6484 23.976 45.3604 24.996 45.3604 26.316V33.552C45.3604 34.44 45.1204 35.124 44.6404 35.604C44.1844 36.084 43.5244 36.324 42.6604 36.324C41.7964 36.324 41.1244 36.084 40.6444 35.604C40.1644 35.124 39.9244 34.44 39.9244 33.552V25.56C39.9244 24.384 39.7324 23.532 39.3484 23.004C38.9884 22.452 38.3644 22.176 37.4764 22.176C36.4444 22.176 35.6404 22.536 35.0644 23.256C34.4884 23.976 34.2004 24.996 34.2004 26.316V33.552C34.2004 35.4 33.3004 36.324 31.5004 36.324ZM63.4206 36.288C62.5326 36.288 61.8486 36.036 61.3686 35.532C60.9126 35.004 60.6846 34.272 60.6846 33.336V21.024C60.6846 20.064 60.9126 19.332 61.3686 18.828C61.8486 18.3 62.5326 18.036 63.4206 18.036C64.2846 18.036 64.9446 18.3 65.4006 18.828C65.8806 19.332 66.1206 20.064 66.1206 21.024V33.336C66.1206 34.272 65.8926 35.004 65.4366 35.532C64.9806 36.036 64.3086 36.288 63.4206 36.288ZM63.4206 15.084C62.4126 15.084 61.6326 14.856 61.0806 14.4C60.5526 13.92 60.2886 13.248 60.2886 12.384C60.2886 11.496 60.5526 10.824 61.0806 10.368C61.6326 9.888 62.4126 9.648 63.4206 9.648C64.4286 9.648 65.1966 9.888 65.7246 10.368C66.2526 10.824 66.5166 11.496 66.5166 12.384C66.5166 13.248 66.2526 13.92 65.7246 14.4C65.1966 14.856 64.4286 15.084 63.4206 15.084ZM79.8574 36.396C78.8494 36.396 77.8174 36.312 76.7614 36.144C75.7294 36 74.7334 35.784 73.7734 35.496C72.8374 35.208 71.9974 34.848 71.2534 34.416C70.7254 34.128 70.3534 33.756 70.1374 33.3C69.9214 32.82 69.8374 32.34 69.8854 31.86C69.9574 31.38 70.1374 30.96 70.4254 30.6C70.7374 30.216 71.1214 29.976 71.5774 29.88C72.0574 29.76 72.5854 29.844 73.1614 30.132C74.1454 30.684 75.2134 31.092 76.3654 31.356C77.5414 31.62 78.7054 31.752 79.8574 31.752C81.6094 31.752 82.8574 31.488 83.6014 30.96C84.3454 30.408 84.7174 29.724 84.7174 28.908C84.7174 28.212 84.4534 27.66 83.9254 27.252C83.3974 26.844 82.4734 26.496 81.1534 26.208L77.0854 25.344C74.7814 24.864 73.0654 24.048 71.9374 22.896C70.8334 21.72 70.2814 20.184 70.2814 18.288C70.2814 17.088 70.5334 15.996 71.0374 15.012C71.5414 14.028 72.2494 13.176 73.1614 12.456C74.0734 11.736 75.1534 11.184 76.4014 10.8C77.6734 10.416 79.0654 10.224 80.5774 10.224C81.9214 10.224 83.2414 10.392 84.5374 10.728C85.8334 11.04 86.9734 11.508 87.9574 12.132C88.4374 12.42 88.7614 12.792 88.9294 13.248C89.1214 13.68 89.1814 14.124 89.1094 14.58C89.0614 15.012 88.8814 15.396 88.5694 15.732C88.2814 16.068 87.9094 16.284 87.4534 16.38C86.9974 16.476 86.4454 16.368 85.7974 16.056C85.0054 15.648 84.1654 15.348 83.2774 15.156C82.3894 14.964 81.4774 14.868 80.5414 14.868C79.5334 14.868 78.6694 15 77.9494 15.264C77.2534 15.528 76.7134 15.9 76.3294 16.38C75.9694 16.86 75.7894 17.412 75.7894 18.036C75.7894 18.732 76.0414 19.296 76.5454 19.728C77.0494 20.16 77.9254 20.508 79.1734 20.772L83.2414 21.636C85.5934 22.14 87.3454 22.956 88.4974 24.084C89.6494 25.188 90.2254 26.652 90.2254 28.476C90.2254 29.676 89.9854 30.768 89.5054 31.752C89.0254 32.712 88.3294 33.54 87.4174 34.236C86.5054 34.932 85.4134 35.472 84.1414 35.856C82.8694 36.216 81.4414 36.396 79.8574 36.396ZM95.6563 36.18C94.6963 36.18 93.9283 35.892 93.3523 35.316C92.8003 34.74 92.5243 33.996 92.5243 33.084C92.5243 32.196 92.8003 31.476 93.3523 30.924C93.9283 30.348 94.6963 30.06 95.6563 30.06C96.6163 30.06 97.3603 30.348 97.8883 30.924C98.4403 31.476 98.7163 32.196 98.7163 33.084C98.7163 33.996 98.4403 34.74 97.8883 35.316C97.3603 35.892 96.6163 36.18 95.6563 36.18Z" fill="black"/>
</svg>
