<svg width="233" height="56" viewBox="0 0 233 56" fill="none" xmlns="http://www.w3.org/2000/svg">
<path d="M229.573 13.0782H225.118C225.034 12.8505 224.94 12.6279 224.841 12.4105L228.085 9.5633C228.428 9.27026 228.709 8.91252 228.912 8.51085C229.115 8.10918 229.235 7.67159 229.266 7.22348C229.297 6.77537 229.237 6.32569 229.091 5.90053C228.945 5.47538 228.715 5.08322 228.415 4.74685C228.114 4.41048 227.75 4.13659 227.342 3.94109C226.934 3.74559 226.49 3.63237 226.038 3.60801C225.585 3.58365 225.132 3.64864 224.705 3.7992C224.278 3.94975 223.886 4.18286 223.551 4.48501L220.134 7.48228C220.082 7.52887 220.04 7.58584 219.988 7.6376C219.774 7.53925 219.555 7.45123 219.33 7.36841V3.26333C219.295 2.38631 218.92 1.55661 218.281 0.948219C217.643 0.339832 216.792 0 215.906 0C215.02 0 214.169 0.339832 213.531 0.948219C212.892 1.55661 212.517 2.38631 212.482 3.26333V7.36841C212.165 7.48352 211.855 7.61485 211.552 7.76184C211.456 7.64397 211.351 7.53323 211.239 7.43053L207.796 4.48501C207.104 3.93783 206.224 3.67783 205.342 3.75958C204.46 3.84132 203.644 4.25847 203.065 4.92347C202.487 5.58846 202.191 6.44963 202.239 7.32629C202.288 8.20295 202.677 9.02695 203.325 9.62542L206.783 12.5813C206.81 12.605 206.84 12.6258 206.872 12.6434C206.809 12.7884 206.757 12.9385 206.699 13.0886H202.406C201.503 13.0927 200.638 13.4503 200 14.0835C199.362 14.7167 199.003 15.5742 199 16.469V16.469C199 17.3687 199.36 18.2317 200.002 18.8684C200.643 19.5051 201.514 19.8635 202.421 19.8648H206.673L206.778 20.1444H206.747L203.325 23.1416C202.679 23.7471 202.295 24.5778 202.256 25.4582C202.216 26.3387 202.524 27.1999 203.113 27.8599C203.702 28.5199 204.527 28.927 205.414 28.9951C206.301 29.0633 207.179 28.7871 207.864 28.2251L211.281 25.2278L211.354 25.1502C211.727 25.35 212.115 25.523 212.513 25.6678V29.7367C212.548 30.6137 212.924 31.4434 213.562 32.0518C214.2 32.6602 215.052 33 215.937 33C216.823 33 217.674 32.6602 218.313 32.0518C218.951 31.4434 219.327 30.6137 219.361 29.7367V25.7093C219.596 25.6213 219.831 25.5281 220.061 25.4194L223.415 28.282C224.105 28.8676 225.002 29.1573 225.909 29.0874C226.815 29.0175 227.656 28.5937 228.247 27.9093C228.837 27.2249 229.13 26.3359 229.059 25.4379C228.989 24.5399 228.561 23.7065 227.87 23.1209L224.893 20.574C224.998 20.3411 225.092 20.103 225.18 19.8648H229.573C230.482 19.8648 231.354 19.5071 231.996 18.8702C232.639 18.2334 233 17.3696 233 16.469V16.469C232.999 15.5692 232.637 14.7068 231.995 14.071C231.352 13.4353 230.481 13.0782 229.573 13.0782V13.0782Z" fill="#A020F0"/>
<path d="M216 22C218.761 22 221 19.7614 221 17C221 14.2386 218.761 12 216 12C213.239 12 211 14.2386 211 17C211 19.7614 213.239 22 216 22Z" fill="white"/>
<path d="M5.4 42.5321C4.464 42.5321 3.756 42.2921 3.276 41.8121C2.796 41.3081 2.556 40.6001 2.556 39.6881V19.9241C2.556 19.0121 2.796 18.3161 3.276 17.8361C3.756 17.3321 4.452 17.0801 5.364 17.0801C7.212 17.0801 8.136 18.0281 8.136 19.9241V37.8161H17.784C19.392 37.8161 20.196 38.5961 20.196 40.1561C20.196 41.7401 19.392 42.5321 17.784 42.5321H5.4ZM25.4607 21.6161C24.4527 21.6161 23.6727 21.3881 23.1207 20.9321C22.5927 20.4521 22.3287 19.7801 22.3287 18.9161C22.3287 18.0281 22.5927 17.3561 23.1207 16.9001C23.6727 16.4201 24.4527 16.1801 25.4607 16.1801C27.5247 16.1801 28.5567 17.0921 28.5567 18.9161C28.5567 20.7161 27.5247 21.6161 25.4607 21.6161ZM25.4607 42.8201C24.5727 42.8201 23.8887 42.5681 23.4087 42.0641C22.9527 41.5361 22.7247 40.8041 22.7247 39.8681V27.5561C22.7247 25.5641 23.6367 24.5681 25.4607 24.5681C26.3247 24.5681 26.9847 24.8321 27.4407 25.3601C27.9207 25.8641 28.1607 26.5961 28.1607 27.5561V39.8681C28.1607 40.8041 27.9327 41.5361 27.4767 42.0641C27.0207 42.5681 26.3487 42.8201 25.4607 42.8201ZM39.1255 42.9281C38.0695 42.9281 36.9775 42.8321 35.8495 42.6401C34.7455 42.4481 33.7375 42.1241 32.8255 41.6681C32.2255 41.3561 31.8295 40.9601 31.6375 40.4801C31.4695 40.0001 31.4695 39.5321 31.6375 39.0761C31.8055 38.6201 32.1055 38.2841 32.5375 38.0681C32.9695 37.8281 33.4735 37.8281 34.0495 38.0681C35.0335 38.4761 35.9335 38.7641 36.7495 38.9321C37.5895 39.1001 38.3935 39.1841 39.1615 39.1841C40.1695 39.1841 40.9135 39.0281 41.3935 38.7161C41.8735 38.3801 42.1135 37.9481 42.1135 37.4201C42.1135 36.5801 41.5015 36.0521 40.2775 35.8361L36.4975 35.1521C34.9855 34.8881 33.8335 34.3481 33.0415 33.5321C32.2495 32.7161 31.8535 31.6481 31.8535 30.3281C31.8535 29.1281 32.1895 28.0961 32.8615 27.2321C33.5335 26.3681 34.4575 25.6961 35.6335 25.2161C36.8095 24.7361 38.1655 24.4961 39.7015 24.4961C41.8135 24.4961 43.6855 24.9041 45.3175 25.7201C45.8695 25.9841 46.2055 26.3561 46.3255 26.8361C46.4695 27.3161 46.4455 27.7841 46.2535 28.2401C46.0615 28.6961 45.7495 29.0441 45.3175 29.2841C44.8855 29.5001 44.3695 29.4761 43.7695 29.2121C42.9775 28.8521 42.2575 28.6001 41.6095 28.4561C40.9615 28.2881 40.3495 28.2041 39.7735 28.2041C38.6935 28.2041 37.9135 28.3841 37.4335 28.7441C36.9535 29.0801 36.7135 29.5121 36.7135 30.0401C36.7135 30.8801 37.2775 31.4081 38.4055 31.6241L42.1855 32.3081C43.7455 32.5721 44.9335 33.1001 45.7495 33.8921C46.5655 34.6601 46.9735 35.7161 46.9735 37.0601C46.9735 38.9081 46.2535 40.3481 44.8135 41.3801C43.3735 42.4121 41.4775 42.9281 39.1255 42.9281ZM56.0523 42.9281C54.7323 42.9281 53.5683 42.6761 52.5603 42.1721C51.5523 41.6681 50.7483 40.9841 50.1483 40.1201C49.5723 39.2561 49.2843 38.2841 49.2843 37.2041C49.2843 35.9321 49.6203 34.9121 50.2923 34.1441C50.9643 33.3761 52.0563 32.8361 53.5683 32.5241C55.0803 32.1881 57.0843 32.0201 59.5803 32.0201H60.8763V31.4081C60.8763 30.3521 60.6363 29.6081 60.1563 29.1761C59.6763 28.7201 58.8603 28.4921 57.7083 28.4921C57.0603 28.4921 56.3523 28.5761 55.5843 28.7441C54.8163 28.8881 53.9883 29.1401 53.1003 29.5001C52.4283 29.7881 51.8643 29.8121 51.4083 29.5721C50.9523 29.3081 50.6523 28.9241 50.5083 28.4201C50.3643 27.8921 50.4003 27.3641 50.6163 26.8361C50.8563 26.3081 51.3123 25.9241 51.9843 25.6841C53.1123 25.2521 54.1683 24.9521 55.1523 24.7841C56.1603 24.5921 57.0843 24.4961 57.9243 24.4961C60.6603 24.4961 62.7003 25.1201 64.0443 26.3681C65.3883 27.5921 66.0603 29.5001 66.0603 32.0921V40.0841C66.0603 41.9321 65.2203 42.8561 63.5403 42.8561C61.8363 42.8561 60.9843 41.9321 60.9843 40.0841V39.8681C60.6243 40.8041 60.0123 41.5481 59.1483 42.1001C58.3083 42.6521 57.2763 42.9281 56.0523 42.9281ZM57.2763 39.2921C58.2843 39.2921 59.1363 38.9441 59.8323 38.2481C60.5283 37.5521 60.8763 36.6521 60.8763 35.5481V34.8281H59.6163C57.7683 34.8281 56.4603 34.9961 55.6923 35.3321C54.9243 35.6441 54.5403 36.1961 54.5403 36.9881C54.5403 37.6601 54.7683 38.2121 55.2243 38.6441C55.7043 39.0761 56.3883 39.2921 57.2763 39.2921ZM93.202 42.9281C90.346 42.9281 87.922 42.3881 85.93 41.3081C83.962 40.2281 82.462 38.7161 81.43 36.7721C80.398 34.8281 79.882 32.5481 79.882 29.9321C79.882 27.2441 80.41 24.9161 81.466 22.9481C82.546 20.9801 84.094 19.4561 86.11 18.3761C88.126 17.2961 90.55 16.7561 93.382 16.7561C94.678 16.7561 95.974 16.9001 97.27 17.1881C98.566 17.4761 99.814 17.9561 101.014 18.6281C101.662 18.9881 102.046 19.4681 102.166 20.0681C102.31 20.6681 102.25 21.2561 101.986 21.8321C101.722 22.3841 101.314 22.7921 100.762 23.0561C100.234 23.2961 99.598 23.2361 98.854 22.8761C97.246 22.0361 95.434 21.6161 93.418 21.6161C90.85 21.6161 88.918 22.3361 87.622 23.7761C86.35 25.1921 85.714 27.2441 85.714 29.9321C85.714 32.6441 86.362 34.6961 87.658 36.0881C88.978 37.4801 90.922 38.1761 93.49 38.1761C94.858 38.1761 96.298 37.9601 97.81 37.5281V32.5601H94.57C93.082 32.5601 92.338 31.8881 92.338 30.5441C92.338 29.2001 93.082 28.5281 94.57 28.5281H100.222C101.686 28.5281 102.418 29.2721 102.418 30.7601V39.1121C102.418 39.7361 102.286 40.2641 102.022 40.6961C101.782 41.1281 101.386 41.4401 100.834 41.6321C99.754 42.0161 98.542 42.3281 97.198 42.5681C95.854 42.8081 94.522 42.9281 93.202 42.9281ZM109.697 42.8561C107.825 42.8561 106.889 41.9321 106.889 40.0841V27.3041C106.889 25.4801 107.777 24.5681 109.553 24.5681C111.329 24.5681 112.217 25.4801 112.217 27.3041V27.9521C113.081 25.8161 114.869 24.6641 117.581 24.4961C118.181 24.4481 118.637 24.6041 118.949 24.9641C119.285 25.3001 119.465 25.8641 119.489 26.6561C119.537 27.4001 119.381 27.9881 119.021 28.4201C118.685 28.8521 118.109 29.1161 117.293 29.2121L116.465 29.2841C113.777 29.5481 112.433 30.9161 112.433 33.3881V40.0841C112.433 41.9321 111.521 42.8561 109.697 42.8561ZM124.461 21.6161C123.453 21.6161 122.673 21.3881 122.121 20.9321C121.593 20.4521 121.329 19.7801 121.329 18.9161C121.329 18.0281 121.593 17.3561 122.121 16.9001C122.673 16.4201 123.453 16.1801 124.461 16.1801C126.525 16.1801 127.557 17.0921 127.557 18.9161C127.557 20.7161 126.525 21.6161 124.461 21.6161ZM124.461 42.8201C123.573 42.8201 122.889 42.5681 122.409 42.0641C121.953 41.5361 121.725 40.8041 121.725 39.8681V27.5561C121.725 25.5641 122.637 24.5681 124.461 24.5681C125.325 24.5681 125.985 24.8321 126.441 25.3601C126.921 25.8641 127.161 26.5961 127.161 27.5561V39.8681C127.161 40.8041 126.933 41.5361 126.477 42.0641C126.021 42.5681 125.349 42.8201 124.461 42.8201ZM134.094 42.8561C132.27 42.8561 131.358 41.9321 131.358 40.0841V27.3041C131.358 25.4801 132.246 24.5681 134.022 24.5681C135.798 24.5681 136.686 25.4801 136.686 27.3041V27.4481C137.286 26.4881 138.09 25.7561 139.098 25.2521C140.106 24.7481 141.234 24.4961 142.482 24.4961C144.57 24.4961 146.13 25.1081 147.162 26.3321C148.194 27.5321 148.71 29.3921 148.71 31.9121V40.0841C148.71 41.9321 147.798 42.8561 145.974 42.8561C145.11 42.8561 144.438 42.6161 143.958 42.1361C143.502 41.6561 143.274 40.9721 143.274 40.0841V32.1641C143.274 30.9401 143.046 30.0641 142.59 29.5361C142.134 28.9841 141.462 28.7081 140.574 28.7081C139.422 28.7081 138.498 29.0681 137.802 29.7881C137.13 30.5081 136.794 31.4681 136.794 32.6681V40.0841C136.794 41.9321 135.894 42.8561 134.094 42.8561ZM161.264 49.4081C159.968 49.4081 158.732 49.3001 157.556 49.0841C156.38 48.8681 155.324 48.5441 154.388 48.1121C153.692 47.8241 153.248 47.4161 153.056 46.8881C152.864 46.3601 152.864 45.8441 153.056 45.3401C153.272 44.8361 153.596 44.4521 154.028 44.1881C154.484 43.9481 154.988 43.9481 155.54 44.1881C156.596 44.6681 157.568 44.9801 158.456 45.1241C159.368 45.2681 160.148 45.3401 160.796 45.3401C163.868 45.3401 165.404 43.9241 165.404 41.0921V39.0761C164.924 39.9881 164.168 40.7201 163.136 41.2721C162.104 41.8241 160.976 42.1001 159.752 42.1001C158.168 42.1001 156.788 41.7401 155.612 41.0201C154.436 40.2761 153.524 39.2441 152.876 37.9241C152.228 36.6041 151.904 35.0561 151.904 33.2801C151.904 31.5281 152.228 29.9921 152.876 28.6721C153.524 27.3521 154.436 26.3321 155.612 25.6121C156.788 24.8681 158.168 24.4961 159.752 24.4961C160.976 24.4961 162.092 24.7601 163.1 25.2881C164.108 25.8161 164.852 26.5121 165.332 27.3761V27.3041C165.332 26.4161 165.56 25.7441 166.016 25.2881C166.496 24.8081 167.168 24.5681 168.032 24.5681C169.808 24.5681 170.696 25.4801 170.696 27.3041V40.4801C170.696 43.4561 169.892 45.6881 168.284 47.1761C166.676 48.6641 164.336 49.4081 161.264 49.4081ZM161.372 38.0321C162.572 38.0321 163.532 37.6121 164.252 36.7721C164.996 35.9321 165.368 34.7681 165.368 33.2801C165.368 31.7921 164.996 30.6401 164.252 29.8241C163.532 28.9841 162.572 28.5641 161.372 28.5641C160.148 28.5641 159.176 28.9841 158.456 29.8241C157.736 30.6401 157.376 31.7921 157.376 33.2801C157.376 34.7681 157.736 35.9321 158.456 36.7721C159.176 37.6121 160.148 38.0321 161.372 38.0321ZM181.288 42.9281C177.04 42.9281 174.916 40.5641 174.916 35.8361V19.6001C174.916 17.7521 175.828 16.8281 177.652 16.8281C179.452 16.8281 180.352 17.7521 180.352 19.6001V35.6201C180.352 36.6041 180.556 37.3361 180.964 37.8161C181.396 38.2721 181.96 38.5001 182.656 38.5001C182.848 38.5001 183.028 38.4881 183.196 38.4641C183.388 38.4401 183.568 38.4281 183.736 38.4281C184.12 38.4041 184.384 38.5241 184.528 38.7881C184.696 39.0521 184.78 39.5921 184.78 40.4081C184.78 41.8001 184.192 42.5921 183.016 42.7841C182.776 42.8081 182.5 42.8321 182.188 42.8561C181.876 42.9041 181.576 42.9281 181.288 42.9281ZM195.909 42.9281C193.821 42.9281 192.021 42.5561 190.509 41.8121C189.021 41.0441 187.869 39.9761 187.053 38.6081C186.261 37.2161 185.865 35.5841 185.865 33.7121C185.865 31.8881 186.249 30.2921 187.017 28.9241C187.809 27.5321 188.877 26.4521 190.221 25.6841C191.589 24.8921 193.161 24.4961 194.937 24.4961C197.505 24.4961 199.545 25.3121 201.057 26.9441C202.569 28.5521 203.325 30.7361 203.325 33.4961C203.325 34.4081 202.761 34.8641 201.633 34.8641H191.049C191.241 36.2561 191.745 37.2761 192.561 37.9241C193.401 38.5481 194.553 38.8601 196.017 38.8601C196.593 38.8601 197.241 38.8001 197.961 38.6801C198.705 38.5361 199.413 38.2961 200.085 37.9601C200.781 37.6241 201.369 37.5641 201.849 37.7801C202.329 37.9721 202.653 38.3081 202.821 38.7881C203.013 39.2681 203.013 39.7721 202.821 40.3001C202.653 40.8041 202.257 41.2241 201.633 41.5601C200.793 42.0161 199.857 42.3521 198.825 42.5681C197.817 42.8081 196.845 42.9281 195.909 42.9281ZM195.153 28.0961C194.001 28.0961 193.065 28.4441 192.345 29.1401C191.649 29.8361 191.217 30.8081 191.049 32.0561H198.825C198.681 29.4161 197.457 28.0961 195.153 28.0961Z" fill="black"/>
</svg>
